<?xml version="1.0" encoding="utf-8"?>
<!-- Generator: Adobe Illustrator 17.1.0, SVG Export Plug-In . SVG Version: 6.00 Build 0)  -->
<!DOCTYPE svg PUBLIC "-//W3C//DTD SVG 1.0//EN" "http://www.w3.org/TR/2001/REC-SVG-20010904/DTD/svg10.dtd">
<svg version="1.0" id="Layer_1" xmlns="http://www.w3.org/2000/svg" xmlns:xlink="http://www.w3.org/1999/xlink" x="0px" y="0px"
	 viewBox="0 0 120.333 126.468" enable-background="new 0 0 120.333 126.468" xml:space="preserve">
<path fill="#BBBBBB" d="M112.054,121.688c-26.91,0-53.953,0-80.916,0c-3.038-9.908,0.79-18.552,8.523-22.859
	c3.927-2.188,7.871-4.346,11.849-6.441c5.562-2.929,7.139-6.85,4.652-12.732c-1.877-4.438-3.979-8.796-6.237-13.054
	c-2.159-4.07-2.191-8.278-1.601-12.637c0.574-4.243,1.467-8.482,1.577-12.74c0.277-10.744,4.709-16.247,15.243-18.393
	c6.375-1.299,12.522-0.899,18.594,1.605c6.886,2.84,9.803,8.309,10.193,15.256c0.298,5.31,0.307,10.541,1.706,15.805
	c1.214,4.57-0.097,8.852-3.16,13.044c-3.342,4.573-6.974,9.355-7.47,15.491c-0.306,3.775,1.004,6.334,4.584,7.944
	c4.555,2.049,9.005,4.347,13.421,6.688C112.145,103.507,115.166,111.049,112.054,121.688z"/>
<path fill="#BBBBBB" d="M5.891,121.645c-2.337-8.932-0.083-15.326,6.834-19.952c3.043-2.035,6.217-3.874,9.259-5.911
	c4.506-3.019,5.336-6.838,2.732-11.522c-1.611-2.897-2.88-6.007-4.694-8.763c-1.87-2.84-2.341-5.844-2.061-9.043
	c0.493-5.617,0.894-11.257,1.745-16.825c1.161-7.593,5.958-12.144,13.259-13.901c4.7-1.131,9.491-1.165,14.473,0.482
	c0.817,5.036,1.09,9.749-0.223,14.489c-1.729,6.244-2.261,12.272,1.52,18.196c2.309,3.618,4.118,7.631,5.603,11.668
	c0.805,2.187,0.46,4.797,0.65,7.437c-4.319,2.4-8.116,4.81-12.157,6.697c-9.893,4.618-15.423,11.861-14.815,23.136
	c0.044,0.817-0.131,1.653-0.275,2.468c-0.054,0.304-0.311,0.572-0.757,1.346C20.223,121.645,13.179,121.645,5.891,121.645z"/>
</svg>
