<?xml version="1.0" encoding="utf-8"?>
<!-- Generator: Adobe Illustrator 17.1.0, SVG Export Plug-In . SVG Version: 6.00 Build 0)  -->
<!DOCTYPE svg PUBLIC "-//W3C//DTD SVG 1.0//EN" "http://www.w3.org/TR/2001/REC-SVG-20010904/DTD/svg10.dtd">
<svg version="1.0" id="Layer_1" xmlns="http://www.w3.org/2000/svg" xmlns:xlink="http://www.w3.org/1999/xlink" x="0px" y="0px"
	 viewBox="0 0 120.333 126.468" enable-background="new 0 0 120.333 126.468" xml:space="preserve">
<path fill="#BBBBBB" d="M79.107,27.461c-10.095-17.514-19.352-17.457-31.1-0.17c-4.126,0.486-8.447,0.995-13.168,1.551
	c-0.717,6.486-2.036,12.891-2.054,19.338c-0.002,0.831,8.725,4.394,11.038,10.8c6.124,0.061,9.046,0.509,10.531,0.719
	c2.729,0.385,5.813,50.15,5.813,50.15c13.505,0,26.182,0,39.3,0c2.034-7.446-3.919-74.952-7.169-81.569
	C87.965,28.011,83.341,27.724,79.107,27.461z M54.588,27.137c1.003-4.89,4.428-8.024,8.915-8.371
	c4.22-0.326,7.722,2.557,9.488,8.371C66.723,27.137,60.683,27.137,54.588,27.137z"/>
<path fill="#BBBBBB" d="M42.667,60.776c-7.464-12.949-14.308-12.907-22.993-0.126c-3.051,0.359-6.245,0.735-9.736,1.147
	c-2.23,20.177-4.04,39.729-5.425,59.891c18.62,0,35.98,0,53.206,0c1.504-5.505-2.897-55.415-5.3-60.307
	C49.216,61.182,45.797,60.97,42.667,60.776z M24.54,60.537c0.742-3.615,3.274-5.933,6.592-6.189c3.12-0.241,5.709,1.89,7.015,6.189
	C33.512,60.537,29.046,60.537,24.54,60.537z"/>
</svg>
