<svg width="14" height="15" viewBox="0 0 14 15" fill="none" xmlns="http://www.w3.org/2000/svg">
<path d="M1.24148 2.48138C1.92713 2.48138 2.48296 1.9259 2.48296 1.24069C2.48296 0.555475 1.92713 0 1.24148 0C0.55583 0 0 0.555475 0 1.24069C0 1.9259 0.55583 2.48138 1.24148 2.48138Z" transform="translate(10.6768 11.7986)" fill="white"/>
<path d="M1.24148 2.48138C1.92713 2.48138 2.48296 1.9259 2.48296 1.24069C2.48296 0.555475 1.92713 0 1.24148 0C0.55583 0 0 0.555475 0 1.24069C0 1.9259 0.55583 2.48138 1.24148 2.48138Z" transform="translate(1.60352 11.7986)" fill="white"/>
<path d="M3.29898 8.49109L11.8042 7.63175C12.0968 7.60243 12.32 7.3563 12.32 7.06197V2.09949C12.32 1.78318 12.0637 1.52687 11.7469 1.52687H2.97377L2.65114 0.413382C2.58036 0.168611 2.35595 0 2.10083 0H0.572992C0.256474 0 -2.64285e-08 0.256446 -2.64285e-08 0.572626C-2.64285e-08 0.888805 0.256474 1.14525 0.572992 1.14525H1.67021L3.45996 7.32412L3.18501 7.35155C2.78943 7.39105 2.42034 7.58002 2.14525 7.88371C1.87031 8.1874 1.71897 8.57336 1.71897 8.97059C1.71897 8.98036 1.71925 8.99027 1.71965 9.00019C1.73528 9.81853 2.39833 10.4812 3.2172 10.4968C3.22698 10.4973 3.2369 10.4976 3.24668 10.4976H11.7469C12.0637 10.4976 12.32 10.241 12.32 9.92483C12.32 9.60865 12.0637 9.3522 11.7469 9.3522H3.24668C3.03612 9.3522 2.86482 9.18088 2.86482 8.97046C2.86482 8.73831 3.06764 8.51417 3.29898 8.49109ZM3.30537 2.67212H11.174V6.54379L4.61939 7.20832L3.30537 2.67212Z" transform="translate(0.839844 0.840088)" fill="white"/>
</svg>
