<svg width="27" height="27" viewBox="0 0 27 27" fill="none" xmlns="http://www.w3.org/2000/svg">
<path d="M13.5 27C20.9558 27 27 20.9558 27 13.5C27 6.04416 20.9558 0 13.5 0C6.04416 0 0 6.04416 0 13.5C0 20.9558 6.04416 27 13.5 27Z" fill="#834995"/>
<path fill-rule="evenodd" clip-rule="evenodd" d="M15.8422 6.17642C14.9533 2.52983 11.8233 0.0303884 8.02476 5.79611e-08C7.53855 5.79611e-08 7.00676 0.0455823 6.48257 0.159538C1.1874 1.22313 -1.56274 7.09567 1.02027 11.8286C1.08105 11.973 1.09623 12.0642 1.05825 12.2085C0.708784 13.4468 0.374515 14.7003 0.0250494 15.9387C-0.020533 16.1514 -0.0205399 16.1514 0.169387 16.0906C1.46089 15.7563 2.76759 15.4297 4.0591 15.0726C4.17305 15.0498 4.24142 15.065 4.34018 15.1106C6.02673 15.9463 7.77406 16.2198 9.60496 15.8627C14.0113 14.9966 16.8906 10.5295 15.8422 6.17642ZM9.14153 14.5788C8.77687 14.6472 8.41982 14.67 8.2223 14.67C6.81684 14.67 5.66208 14.3433 4.60609 13.7127C4.47694 13.6292 4.35538 13.5912 4.18825 13.6595C3.48172 13.8495 2.78279 14.0242 2.05347 14.2065C1.90913 14.2521 1.89393 14.2217 1.93191 14.085C2.10664 13.4088 2.30416 12.7251 2.49409 12.0642C2.53967 11.8666 2.52448 11.7299 2.41052 11.5627C0.959483 9.20765 1.01267 6.29797 2.63844 4.11761C4.34778 1.86128 6.6573 0.93444 9.43783 1.52701C12.15 2.0892 13.8745 3.85172 14.5279 6.54868C15.3939 10.2636 12.8869 13.971 9.14153 14.5788Z" transform="translate(5.48242 5.43823)" fill="#FCFCFC"/>
<path fill-rule="evenodd" clip-rule="evenodd" d="M6.13272 7.55789C5.85163 7.56549 5.58573 7.51231 5.31224 7.42874C3.46615 6.89694 2.08349 5.74978 0.974315 4.22277C0.57167 3.66819 0.169027 3.08321 0.047474 2.36149C-0.112065 1.51062 0.131037 0.781298 0.769191 0.203921C0.966715 0.0215911 1.58968 -0.0619766 1.84038 0.0519795C1.93155 0.0975619 1.99233 0.173533 2.02271 0.264698C2.26582 0.811687 2.48613 1.37387 2.71405 1.90567C2.76723 2.02722 2.73683 2.12598 2.69125 2.21715C2.5773 2.47545 2.39497 2.68057 2.18985 2.89328C2.0607 3.03003 2.0379 3.15918 2.15185 3.35671C2.7976 4.44309 3.70926 5.21039 4.86401 5.6966C5.03874 5.77258 5.1755 5.74978 5.29705 5.59784C5.48698 5.34714 5.70729 5.10403 5.88962 4.85333C6.01117 4.69379 6.16311 4.64821 6.33784 4.72418C6.74049 4.89891 7.11274 5.08884 7.50779 5.27877C7.59895 5.30915 7.69012 5.36233 7.76609 5.40032C8.15354 5.60544 8.15355 5.60544 8.11557 6.03847C8.04719 6.87415 7.41664 7.30719 6.66453 7.51231C6.48979 7.55789 6.30745 7.56549 6.13272 7.55789Z" transform="translate(9.46289 9.7229)" fill="#FDFDFD"/>
</svg>
