<svg width="27" height="27" viewBox="0 0 27 27" fill="none" xmlns="http://www.w3.org/2000/svg">
<path d="M13.5 27C20.9558 27 27 20.9558 27 13.5C27 6.04415 20.9558 -5.9087e-06 13.5 -5.9087e-06C6.04416 -5.9087e-06 0 6.04415 0 13.5C0 20.9558 6.04416 27 13.5 27Z" fill="#D54A3D"/>
<path fill-rule="evenodd" clip-rule="evenodd" d="M7.89001 8.56467C7.50278 8.20781 7.06999 7.88891 6.66757 7.56242C6.15885 7.10685 6.1057 6.6437 6.54609 6.15017C6.78906 5.84646 7.10036 5.62627 7.3737 5.3833C8.51262 4.33549 8.70244 2.77138 7.85205 1.50338C7.65464 1.23763 7.39648 0.987067 7.08517 0.637798C7.95075 0.736504 8.63411 0.569466 9.25672 5.56113e-06C7.80649 5.56113e-06 6.41701 5.56113e-06 5.03512 5.56113e-06C4.3214 0.022784 3.63045 0.182227 2.97747 0.485939C1.06408 1.38189 0.365545 3.62177 1.49687 5.23144C2.15745 6.19572 3.12933 6.52222 4.23787 6.49185C4.36695 6.49185 4.70104 6.3172 4.57955 6.71962C4.38214 7.36501 4.59474 7.9117 5.06549 8.50393C4.81493 8.50393 4.67826 8.50393 4.54918 8.50393C3.29637 8.65579 2.04355 8.83042 1.01853 9.64285C-0.431699 10.8046 -0.317807 12.7179 1.2615 13.6822C2.98506 14.7604 6.28793 14.4719 7.81408 13.1659C9.3782 11.8144 9.41616 9.95415 7.89001 8.56467ZM3.42544 5.15551C2.78006 4.29752 2.49912 3.2725 2.62061 2.20191C2.69654 1.45782 3.08377 0.94151 3.7899 0.690947C4.50362 0.470756 5.13382 0.668173 5.63495 1.18448C6.38664 1.97413 6.64479 2.96878 6.71313 3.81158C6.72072 4.98847 6.35627 5.58071 5.55143 5.85405C4.77696 6.15777 3.96453 5.8996 3.42544 5.15551ZM7.73816 11.7613C7.65463 12.4902 7.22944 12.9609 6.59924 13.257C6.06015 13.5 5.49069 13.6063 4.89845 13.5759C4.07083 13.5228 3.2584 13.4013 2.55227 12.9002C1.23872 11.9814 1.3602 10.2275 2.79524 9.52896C3.63804 9.08099 4.54918 8.98228 5.48309 9.02784C6.47016 9.08099 7.84445 10.7742 7.73816 11.7613Z" transform="translate(7.34814 6.3877)" fill="#FDFDFD"/>
<path d="M1.72357 4.61643V2.90045H-3.33089e-07V1.71598H1.72357V4.05499e-06H2.86249V1.71598H4.60124V2.90045H2.87008V4.61643H1.72357Z" transform="translate(16.8613 6.25806)" fill="#FDFDFD"/>
</svg>
