<svg width="15" height="15" viewBox="0 0 15 15" fill="none" xmlns="http://www.w3.org/2000/svg">
<path d="M13.2655 3.07918C12.7823 1.40113 11.7756 0.35428 10.2589 0.0617774C10.0328 0.0183367 9.80372 -0.0022688 9.57441 0.000197796C8.48722 0.000197796 7.54766 0.539019 6.76918 1.53969C6.75575 1.55508 6.74233 1.58587 6.72891 1.60127C6.56455 1.39469 6.38976 1.19935 6.20545 1.01626C5.54105 0.359937 4.69314 -0.000665205 3.8163 0.000197796C2.15195 0.000197796 0.527864 1.24718 0.125199 3.3101C-0.0172686 3.99095 -0.0383949 4.69779 0.0630869 5.38824C0.164569 6.07869 0.386568 6.73852 0.715775 7.32817C1.30893 8.40884 2.03699 9.38395 2.87675 10.2224C4.03237 11.4231 5.29161 12.4857 6.63495 13.3938C6.66417 13.4245 6.70267 13.4411 6.74233 13.4399C6.77542 13.439 6.80776 13.4284 6.83629 13.4092C8.50064 12.2391 10.0576 10.9152 11.4267 9.29871C12.0976 8.53646 12.6473 7.64554 13.0508 6.66619C13.238 6.21985 13.3604 5.74145 13.4132 5.24986C13.4159 5.21714 13.4251 5.18557 13.44 5.15749V3.9259C13.3863 3.64109 13.3326 3.35629 13.2655 3.07918ZM12.4924 5.00354C12.4813 5.04329 12.4768 5.08505 12.479 5.1267C12.4387 5.5065 12.3434 5.87592 12.1971 6.21974C11.8323 7.08722 11.3371 7.87414 10.7341 8.54436C9.64689 9.83754 8.37178 11.0075 6.73428 12.193C5.59323 11.3769 4.51549 10.4498 3.51296 9.42188C2.73888 8.65249 2.06934 7.75481 1.52647 6.75856C1.26303 6.2863 1.08561 5.75781 1.00487 5.20486C0.924142 4.65192 0.94177 4.08595 1.0567 3.54102C1.39225 1.84759 2.73447 1.06245 3.83509 1.06245C4.48996 1.05889 5.12391 1.32678 5.62024 1.8168C5.71419 1.90916 5.80815 2.01693 5.91553 2.14009C5.977 2.20831 6.03524 2.28026 6.09001 2.35562L6.89535 3.27931L7.52619 2.20167C8.13019 1.43192 8.80129 1.06245 9.5932 1.06245C9.76846 1.06251 9.94346 1.07795 10.1167 1.10863C11.271 1.32416 12.0092 2.06311 12.3984 3.40247C12.4394 3.5422 12.4664 3.68681 12.479 3.83353C12.4924 3.89511 12.4924 3.95669 12.5058 4.01827V5.00354H12.4924Z" transform="translate(0.840088 0.840088)" fill="white"/>
</svg>
