<svg width="69" height="52" viewBox="0 0 69 52" fill="none" xmlns="http://www.w3.org/2000/svg">
<circle cx="26" cy="26" r="26" transform="translate(1)" fill="#F91D65"/>
<path d="M17.808 11.56C18.848 11.56 19.776 11.776 20.592 12.208C21.424 12.64 22.072 13.28 22.536 14.128C23.016 14.976 23.256 16 23.256 17.2V25H20.544V17.608C20.544 16.424 20.248 15.52 19.656 14.896C19.064 14.256 18.256 13.936 17.232 13.936C16.208 13.936 15.392 14.256 14.784 14.896C14.192 15.52 13.896 16.424 13.896 17.608V25H11.184V17.608C11.184 16.424 10.888 15.52 10.296 14.896C9.704 14.256 8.896 13.936 7.872 13.936C6.848 13.936 6.032 14.256 5.424 14.896C4.832 15.52 4.536 16.424 4.536 17.608V25H1.8V11.776H4.536V13.288C4.984 12.744 5.552 12.32 6.24 12.016C6.928 11.712 7.664 11.56 8.448 11.56C9.504 11.56 10.448 11.784 11.28 12.232C12.112 12.68 12.752 13.328 13.2 14.176C13.6 13.376 14.224 12.744 15.072 12.28C15.92 11.8 16.832 11.56 17.808 11.56ZM25.8255 18.328C25.8255 17 26.0975 15.824 26.6415 14.8C27.2015 13.776 27.9535 12.984 28.8975 12.424C29.8575 11.848 30.9135 11.56 32.0655 11.56C33.1055 11.56 34.0095 11.768 34.7775 12.184C35.5615 12.584 36.1855 13.088 36.6495 13.696V11.776H39.4095V25H36.6495V23.032C36.1855 23.656 35.5535 24.176 34.7535 24.592C33.9535 25.008 33.0415 25.216 32.0175 25.216C30.8815 25.216 29.8415 24.928 28.8975 24.352C27.9535 23.76 27.2015 22.944 26.6415 21.904C26.0975 20.848 25.8255 19.656 25.8255 18.328ZM36.6495 18.376C36.6495 17.464 36.4575 16.672 36.0735 16C35.7055 15.328 35.2175 14.816 34.6095 14.464C34.0015 14.112 33.3455 13.936 32.6415 13.936C31.9375 13.936 31.2815 14.112 30.6735 14.464C30.0655 14.8 29.5695 15.304 29.1855 15.976C28.8175 16.632 28.6335 17.416 28.6335 18.328C28.6335 19.24 28.8175 20.04 29.1855 20.728C29.5695 21.416 30.0655 21.944 30.6735 22.312C31.2975 22.664 31.9535 22.84 32.6415 22.84C33.3455 22.84 34.0015 22.664 34.6095 22.312C35.2175 21.96 35.7055 21.448 36.0735 20.776C36.4575 20.088 36.6495 19.288 36.6495 18.376ZM44.4911 11.776L48.2111 21.856L52.0751 11.776H54.9071L46.7951 31.216H43.9631L46.6511 24.784L41.4431 11.776H44.4911ZM56.0599 18.328C56.0599 17 56.3319 15.824 56.8759 14.8C57.4359 13.776 58.1879 12.984 59.1319 12.424C60.0919 11.848 61.1479 11.56 62.2999 11.56C63.3399 11.56 64.2439 11.768 65.0119 12.184C65.7959 12.584 66.4199 13.088 66.8839 13.696V11.776H69.6439V25H66.8839V23.032C66.4199 23.656 65.7879 24.176 64.9879 24.592C64.1879 25.008 63.2759 25.216 62.2519 25.216C61.1159 25.216 60.0759 24.928 59.1319 24.352C58.1879 23.76 57.4359 22.944 56.8759 21.904C56.3319 20.848 56.0599 19.656 56.0599 18.328ZM66.8839 18.376C66.8839 17.464 66.6919 16.672 66.3079 16C65.9399 15.328 65.4519 14.816 64.8439 14.464C64.2359 14.112 63.5799 13.936 62.8759 13.936C62.1719 13.936 61.5159 14.112 60.9079 14.464C60.2999 14.8 59.8039 15.304 59.4199 15.976C59.0519 16.632 58.8679 17.416 58.8679 18.328C58.8679 19.24 59.0519 20.04 59.4199 20.728C59.8039 21.416 60.2999 21.944 60.9079 22.312C61.5319 22.664 62.1879 22.84 62.8759 22.84C63.5799 22.84 64.2359 22.664 64.8439 22.312C65.4519 21.96 65.9399 21.448 66.3079 20.776C66.6919 20.088 66.8839 19.288 66.8839 18.376Z" transform="translate(-1 8)" fill="#3F3F3F"/>
</svg>
