<svg width="11" height="11" viewBox="0 0 11 11" fill="none" xmlns="http://www.w3.org/2000/svg">
<path d="M11 9.6875C11 9.63281 11 9.57813 10.9766 9.52344C10.9219 9.35938 10.5391 9.1875 10.3828 9.10937C9.9375 8.85938 9.48438 8.61719 9.04688 8.35938C8.84375 8.23438 8.59375 8 8.35156 8C7.875 8 7.17969 9.41406 6.75781 9.41406C6.54688 9.41406 6.27344 9.21875 6.08594 9.10937C4.66406 8.32031 3.67969 7.33594 2.89063 5.91406C2.78125 5.72656 2.58594 5.45312 2.58594 5.24219C2.58594 4.82031 4 4.125 4 3.64844C4 3.40625 3.76562 3.15625 3.64062 2.95312C3.38281 2.51562 3.14062 2.0625 2.89063 1.61719C2.8125 1.46094 2.64062 1.07813 2.47656 1.02344C2.42187 1 2.36719 1 2.3125 1C2.03125 1 1.48437 1.125 1.22656 1.24219C0.84375 1.40625 0.59375 1.84375 0.398437 2.19531C0.148437 2.65625 0 3.125 0 3.64844C0 4.375 0.296875 5.03125 0.539062 5.69531C0.710938 6.17188 0.921875 6.63281 1.1875 7.0625C2.00781 8.39062 3.60938 9.99219 4.9375 10.8125C5.36719 11.0781 5.82812 11.2891 6.30469 11.4609C6.96875 11.7031 7.625 12 8.35156 12C8.875 12 9.34375 11.8516 9.80469 11.6016C10.1562 11.4063 10.5937 11.1562 10.7578 10.7734C10.875 10.5156 11 9.96875 11 9.6875Z" transform="translate(0 -1)" fill="#FF8E0A"/>
</svg>
