<svg width="38" height="41" viewBox="0 0 38 41" fill="none" xmlns="http://www.w3.org/2000/svg">
<path opacity="0.50" d="M3.70871 36.8571H10.1373V30.4286H3.70871V36.8571ZM11.5658 36.8571H18.7087V30.4286H11.5658V36.8571ZM3.70871 29H10.1373V21.8571H3.70871V29ZM11.5658 29H18.7087V21.8571H11.5658V29ZM3.70871 20.4286H10.1373V14H3.70871V20.4286ZM20.1373 36.8571H27.2801V30.4286H20.1373V36.8571ZM11.5658 20.4286H18.7087V14H11.5658V20.4286ZM28.7087 36.8571H35.1373V30.4286H28.7087V36.8571ZM20.1373 29H27.2801V21.8571H20.1373V29ZM12.2801 9.71429V3.28571C12.2801 3.09226 12.2057 2.92857 12.0569 2.79464C11.923 2.64583 11.7593 2.57143 11.5658 2.57143H10.1373C9.94382 2.57143 9.77269 2.64583 9.62388 2.79464C9.48996 2.92857 9.42299 3.09226 9.42299 3.28571V9.71429C9.42299 9.90774 9.48996 10.0789 9.62388 10.2277C9.77269 10.3616 9.94382 10.4286 10.1373 10.4286H11.5658C11.7593 10.4286 11.923 10.3616 12.0569 10.2277C12.2057 10.0789 12.2801 9.90774 12.2801 9.71429ZM28.7087 29H35.1373V21.8571H28.7087V29ZM20.1373 20.4286H27.2801V14H20.1373V20.4286ZM28.7087 20.4286H35.1373V14H28.7087V20.4286ZM29.423 9.71429V3.28571C29.423 3.09226 29.3486 2.92857 29.1998 2.79464C29.0658 2.64583 28.9022 2.57143 28.7087 2.57143H27.2801C27.0867 2.57143 26.9156 2.64583 26.7667 2.79464C26.6328 2.92857 26.5658 3.09226 26.5658 3.28571V9.71429C26.5658 9.90774 26.6328 10.0789 26.7667 10.2277C26.9156 10.3616 27.0867 10.4286 27.2801 10.4286H28.7087C28.9022 10.4286 29.0658 10.3616 29.1998 10.2277C29.3486 10.0789 29.423 9.90774 29.423 9.71429ZM37.9944 8.28571V36.8571C37.9944 37.631 37.7117 38.3006 37.1462 38.8661C36.5807 39.4315 35.9111 39.7143 35.1373 39.7143H3.70871C2.9349 39.7143 2.26525 39.4315 1.69978 38.8661C1.1343 38.3006 0.851562 37.631 0.851562 36.8571V8.28571C0.851562 7.5119 1.1343 6.84226 1.69978 6.27679C2.26525 5.71131 2.9349 5.42857 3.70871 5.42857H6.56585V3.28571C6.56585 2.30357 6.91555 1.4628 7.61496 0.763394C8.31436 0.0639882 9.15513 -0.285715 10.1373 -0.285715H11.5658C12.548 -0.285715 13.3888 0.0639882 14.0882 0.763394C14.7876 1.4628 15.1373 2.30357 15.1373 3.28571V5.42857H23.7087V3.28571C23.7087 2.30357 24.0584 1.4628 24.7578 0.763394C25.4572 0.0639882 26.298 -0.285715 27.2801 -0.285715H28.7087C29.6908 -0.285715 30.5316 0.0639882 31.231 0.763394C31.9304 1.4628 32.2801 2.30357 32.2801 3.28571V5.42857H35.1373C35.9111 5.42857 36.5807 5.71131 37.1462 6.27679C37.7117 6.84226 37.9944 7.5119 37.9944 8.28571Z" transform="translate(0 1)" fill="#FF8E0A"/>
</svg>
