<svg width="49" height="40" viewBox="0 0 49 40" fill="none" xmlns="http://www.w3.org/2000/svg">
<path opacity="0.50" d="M-16.6863 41.9397C-15.9794 41.2329 -15.626 40.3958 -15.626 39.4286C-15.626 38.4613 -15.9794 37.6243 -16.6863 36.9174C-17.3931 36.2106 -18.2302 35.8571 -19.1974 35.8571C-20.1647 35.8571 -21.0017 36.2106 -21.7086 36.9174C-22.4154 37.6243 -22.7689 38.4613 -22.7689 39.4286C-22.7689 40.3958 -22.4154 41.2329 -21.7086 41.9397C-21.0017 42.6466 -20.1647 43 -19.1974 43C-18.2302 43 -17.3931 42.6466 -16.6863 41.9397ZM-26.3403 25.1429H-15.626V18H-20.0345C-20.2763 18 -20.4809 18.0837 -20.6483 18.2511L-26.0892 23.692C-26.2566 23.8594 -26.3403 24.064 -26.3403 24.3058V25.1429ZM8.31373 41.9397C9.02057 41.2329 9.374 40.3958 9.374 39.4286C9.374 38.4613 9.02057 37.6243 8.31373 36.9174C7.60688 36.2106 6.76983 35.8571 5.80257 35.8571C4.8353 35.8571 3.99825 36.2106 3.29141 36.9174C2.58456 37.6243 2.23114 38.4613 2.23114 39.4286C2.23114 40.3958 2.58456 41.2329 3.29141 41.9397C3.99825 42.6466 4.8353 43 5.80257 43C6.76983 43 7.60688 42.6466 8.31373 41.9397ZM16.5169 9.07143V37.6429C16.5169 37.9219 16.4797 38.173 16.4052 38.3962C16.3308 38.6008 16.2006 38.7682 16.0146 38.8984C15.8472 39.0286 15.6984 39.1403 15.5682 39.2333C15.438 39.3077 15.2148 39.3635 14.8985 39.4007C14.6009 39.4193 14.3963 39.4379 14.2847 39.4565C14.1731 39.4565 13.9313 39.4565 13.5593 39.4565C13.2058 39.4379 13.0012 39.4286 12.9454 39.4286C12.9454 41.4003 12.2479 43.0837 10.8528 44.4788C9.4577 45.8739 7.77429 46.5714 5.80257 46.5714C3.83084 46.5714 2.14743 45.8739 0.752346 44.4788C-0.642745 43.0837 -1.34029 41.4003 -1.34029 39.4286H-12.0546C-12.0546 41.4003 -12.7521 43.0837 -14.1472 44.4788C-15.5423 45.8739 -17.2257 46.5714 -19.1974 46.5714C-21.1692 46.5714 -22.8526 45.8739 -24.2477 44.4788C-25.6427 43.0837 -26.3403 41.4003 -26.3403 39.4286H-28.126C-28.1818 39.4286 -28.3957 39.4379 -28.7677 39.4565C-29.1212 39.4565 -29.3537 39.4565 -29.4653 39.4565C-29.5769 39.4379 -29.7908 39.4193 -30.107 39.4007C-30.4046 39.3635 -30.6186 39.3077 -30.7488 39.2333C-30.879 39.1403 -31.0371 39.0286 -31.2231 38.8984C-31.3905 38.7682 -31.5114 38.6008 -31.5858 38.3962C-31.6602 38.173 -31.6974 37.9219 -31.6974 37.6429C-31.6974 37.1592 -31.5207 36.7407 -31.1673 36.3873C-30.8139 36.0339 -30.3953 35.8571 -29.9117 35.8571V26.9286C-29.9117 26.7798 -29.921 26.4542 -29.9396 25.952C-29.9396 25.4498 -29.9396 25.0964 -29.9396 24.8917C-29.921 24.6871 -29.8931 24.3709 -29.8559 23.9431C-29.8187 23.4967 -29.7629 23.1525 -29.6885 22.9107C-29.5955 22.6503 -29.4653 22.362 -29.2979 22.0458C-29.1119 21.7295 -28.898 21.4505 -28.6561 21.2087L-23.1316 15.6842C-22.7782 15.3307 -22.3131 15.0331 -21.7365 14.7913C-21.1413 14.5495 -20.5925 14.4286 -20.0903 14.4286H-15.626V9.07143C-15.626 8.5878 -15.4493 8.16927 -15.0959 7.81585C-14.7424 7.46243 -14.3239 7.28571 -13.8403 7.28571H14.7311C15.2148 7.28571 15.6333 7.46243 15.9867 7.81585C16.3401 8.16927 16.5169 8.5878 16.5169 9.07143Z" transform="translate(32 -7)" fill="#FF8E0A"/>
</svg>
