<svg xmlns="http://www.w3.org/2000/svg" data-name="Layer 1" viewBox="0 0 100 125" x="0px" y="0px"><title>72</title><g data-name="Group"><path data-name="Compound Path" d="M50.5,6.4A16.2,16.2,0,0,0,34.3,22.6v7.1H27.2a1,1,0,0,0-.7.3L16.3,40.2a1,1,0,0,0-.3.7V80.6a13,13,0,0,0,13,13H71a13,13,0,0,0,13-13V40.9a1,1,0,0,0-.3-.7L73.5,30a1,1,0,0,0-.7-.3H66.7V22.6A16.2,16.2,0,0,0,50.5,6.4ZM36.3,22.6a14.2,14.2,0,1,1,28.4,0v7.1H36.3Zm28.4,9.1v8.1H36.3V31.7Zm-37.1,0h6.7v8.1H19.4ZM82,80.6a11,11,0,0,1-11,11H29a11,11,0,0,1-11-11V41.9H34.3V62a1,1,0,0,0,2,0V41.9H64.7V62a1,1,0,0,0,2,0V41.9H82ZM72.4,31.7l8.1,8.1H66.7V31.7Z"/></g></svg>