<svg width="14" height="14" viewBox="0 0 14 14" fill="none" xmlns="http://www.w3.org/2000/svg">
<path d="M13.2812 9.375C13.3646 8.89583 13.4062 8.4375 13.4062 8C13.4062 6.83333 13.1146 5.76042 12.5312 4.78125C11.9688 3.80208 11.1979 3.03125 10.2188 2.46875C9.23958 1.88542 8.16667 1.59375 7 1.59375C6.54167 1.59375 6.08333 1.63542 5.625 1.71875C5 1.23958 4.29167 1 3.5 1C2.875 1 2.29167 1.15625 1.75 1.46875C1.20833 1.78125 0.78125 2.20833 0.46875 2.75C0.15625 3.29167 0 3.875 0 4.5C0 5.29167 0.239583 6 0.71875 6.625C0.635417 7.10417 0.59375 7.5625 0.59375 8C0.59375 9.16667 0.875 10.2396 1.4375 11.2188C2.02083 12.1979 2.80208 12.9792 3.78125 13.5625C4.76042 14.125 5.83333 14.4062 7 14.4062C7.45833 14.4062 7.91667 14.3646 8.375 14.2812C9 14.7604 9.70833 15 10.5 15C11.125 15 11.7083 14.8438 12.25 14.5312C12.7917 14.2188 13.2188 13.7917 13.5312 13.25C13.8438 12.7083 14 12.125 14 11.5C14 10.7083 13.7604 10 13.2812 9.375ZM7.1875 12.2188C6.52083 12.2188 5.89583 12.1354 5.3125 11.9688C4.72917 11.7812 4.27083 11.5312 3.9375 11.2188C3.60417 10.9062 3.4375 10.5625 3.4375 10.1875C3.4375 9.91667 3.51042 9.69792 3.65625 9.53125C3.82292 9.34375 4.05208 9.25 4.34375 9.25C4.53125 9.25 4.70833 9.30208 4.875 9.40625C4.97917 9.46875 5.125 9.60417 5.3125 9.8125C5.58333 10.0833 5.8125 10.2708 6 10.375C6.3125 10.5625 6.66667 10.6562 7.0625 10.6562C7.47917 10.6562 7.8125 10.5833 8.0625 10.4375C8.3125 10.2708 8.4375 10.0625 8.4375 9.8125C8.4375 9.5625 8.32292 9.375 8.09375 9.25C7.96875 9.16667 7.67708 9.07292 7.21875 8.96875L6.59375 8.8125C5.84375 8.64583 5.3125 8.5 5 8.375C4.47917 8.1875 4.10417 7.9375 3.875 7.625C3.58333 7.27083 3.4375 6.80208 3.4375 6.21875C3.4375 5.36458 3.80208 4.70833 4.53125 4.25C5.15625 3.875 5.91667 3.6875 6.8125 3.6875C7.72917 3.6875 8.53125 3.84375 9.21875 4.15625C9.94792 4.48958 10.3125 4.90625 10.3125 5.40625C10.3125 5.69792 10.2188 5.9375 10.0312 6.125C9.86458 6.3125 9.63542 6.40625 9.34375 6.40625C9.17708 6.40625 9.02083 6.36458 8.875 6.28125C8.77083 6.23958 8.64583 6.13542 8.5 5.96875C8.27083 5.78125 8.08333 5.64583 7.9375 5.5625C7.66667 5.4375 7.35417 5.375 7 5.375C6.125 5.375 5.6875 5.60417 5.6875 6.0625C5.6875 6.3125 5.82292 6.5 6.09375 6.625C6.28125 6.70833 6.69792 6.83333 7.34375 7L7.84375 7.09375C8.67708 7.28125 9.3125 7.52083 9.75 7.8125C10.375 8.25 10.6875 8.82292 10.6875 9.53125C10.6875 10.3854 10.3229 11.0625 9.59375 11.5625C8.92708 12 8.125 12.2188 7.1875 12.2188Z" transform="translate(0 -1)" fill="#FF8E0A"/>
</svg>
