<svg width="43" height="26" viewBox="0 0 43 26" fill="none" xmlns="http://www.w3.org/2000/svg">
<path opacity="0.50" d="M-21.2019 7.6875H-24.3894C-24.8321 7.6875 -25.2084 7.84245 -25.5183 8.15234C-25.8282 8.46224 -25.9831 8.83854 -25.9831 9.28125V23.0938C-25.9831 23.5365 -25.8282 23.9128 -25.5183 24.2227C-25.2084 24.5326 -24.8321 24.6875 -24.3894 24.6875H-21.2019C-20.7592 24.6875 -20.3829 24.5326 -20.073 24.2227C-19.7631 23.9128 -19.6081 23.5365 -19.6081 23.0938V9.28125C-19.6081 8.83854 -19.7631 8.46224 -20.073 8.15234C-20.3829 7.84245 -20.7592 7.6875 -21.2019 7.6875ZM-22.7956 22.8281C-23.1498 22.8281 -23.4597 22.6953 -23.7253 22.4297C-23.991 22.1641 -24.1238 21.8542 -24.1238 21.5C-24.1238 21.1458 -23.991 20.8359 -23.7253 20.5703C-23.4597 20.3047 -23.1498 20.1719 -22.7956 20.1719C-22.4415 20.1719 -22.1316 20.3047 -21.866 20.5703C-21.6003 20.8359 -21.4675 21.1458 -21.4675 21.5C-21.4675 21.8542 -21.6003 22.1641 -21.866 22.4297C-22.1316 22.6953 -22.4415 22.8281 -22.7956 22.8281ZM14.9231 7.6875H11.7356C11.2929 7.6875 10.9166 7.84245 10.6067 8.15234C10.2968 8.46224 10.1419 8.83854 10.1419 9.28125V23.0938C10.1419 23.5365 10.2968 23.9128 10.6067 24.2227C10.9166 24.5326 11.2929 24.6875 11.7356 24.6875H14.9231C15.3658 24.6875 15.7421 24.5326 16.052 24.2227C16.3619 23.9128 16.5169 23.5365 16.5169 23.0938V9.28125C16.5169 8.83854 16.3619 8.46224 16.052 8.15234C15.7421 7.84245 15.3658 7.6875 14.9231 7.6875ZM13.3294 22.8281C12.9752 22.8281 12.6653 22.6953 12.3997 22.4297C12.134 22.1641 12.0012 21.8542 12.0012 21.5C12.0012 21.1458 12.134 20.8359 12.3997 20.5703C12.6653 20.3047 12.9752 20.1719 13.3294 20.1719C13.6835 20.1719 13.9934 20.3047 14.259 20.5703C14.5247 20.8359 14.6575 21.1458 14.6575 21.5C14.6575 21.8542 14.5247 22.1641 14.259 22.4297C13.9934 22.6953 13.6835 22.8281 13.3294 22.8281ZM6.29029 6.42578L9.07935 9.61328V21.5H7.81763C7.86191 20.4818 7.55201 19.5964 6.88795 18.8438L1.50904 12.2695C1.59758 12.181 1.64185 12.0703 1.64185 11.9375C1.64185 11.7604 1.59758 11.6276 1.50904 11.5391C1.28769 11.362 1.0442 11.3398 0.778572 11.4727L-3.2058 15.7227C-4.00268 16.6081 -4.99877 17.0508 -6.19408 17.0508C-7.3894 17.0065 -8.36336 16.5195 -9.11596 15.5898C-9.64721 14.9701 -9.91283 14.2617 -9.91283 13.4648C-9.91283 12.668 -9.64721 11.9596 -9.11596 11.3398L-4.66674 6.22656C-4.22403 5.69531 -3.69278 5.27474 -3.07299 4.96484C-2.40893 4.65495 -1.70059 4.5 -0.94799 4.5H2.1067C2.90357 4.5 3.65618 4.67708 4.36451 5.03125C5.11711 5.34115 5.75904 5.80599 6.29029 6.42578ZM6.09107 19.5742C6.57805 20.1055 6.79941 20.7695 6.75513 21.5664C6.71086 22.319 6.4231 22.9167 5.89185 23.3594C5.53769 23.7135 5.11711 23.957 4.63013 24.0898C4.2317 24.1784 3.85539 24.2227 3.50123 24.2227C3.14706 24.1784 2.92571 24.112 2.83717 24.0234C2.88144 24.3776 2.74862 24.7982 2.43873 25.2852C2.12883 25.7721 1.68612 26.1706 1.1106 26.4805C0.490812 26.8346 -0.173251 26.9896 -0.881584 26.9453C-1.10294 27.6979 -1.61205 28.2956 -2.40893 28.7383C-3.16153 29.1367 -3.95841 29.2031 -4.79955 28.9375C-5.46362 29.6016 -6.34903 29.9336 -7.4558 29.9336C-8.38549 29.9336 -9.27091 29.7565 -10.1121 29.4023C-10.9532 29.0039 -11.6837 28.4948 -12.3035 27.875L-18.5456 21.5V9.28125L-14.4949 5.89453C-13.5652 4.96484 -12.4363 4.5 -11.1081 4.5H-8.65112C-7.50007 4.5 -6.50398 4.92057 -5.66283 5.76172L-9.91283 10.6758C-10.6212 11.4727 -10.9753 12.4023 -10.9753 13.4648C-10.9753 14.5273 -10.6433 15.457 -9.97924 16.2539C-9.31518 17.0508 -8.5183 17.582 -7.58862 17.8477C-6.65893 18.1133 -5.72924 18.1354 -4.79955 17.9141C-3.86987 17.6484 -3.07299 17.1393 -2.40893 16.3867L0.778572 13.0664L6.09107 19.5742Z" transform="translate(26 -4)" fill="#FF8E0A"/>
</svg>
