<svg width="27" height="27" viewBox="0 0 27 27" fill="none" xmlns="http://www.w3.org/2000/svg">
<path d="M13.5 27C20.9558 27 27 20.9558 27 13.5C27 6.04416 20.9558 0 13.5 0C6.04416 0 0 6.04416 0 13.5C0 20.9558 6.04416 27 13.5 27Z" fill="#234D93"/>
<path d="M-2.89642e-08 5.18588H1.8982V4.2216C1.8982 3.12823 2.01968 2.3234 2.23988 1.79949C2.47525 1.26041 2.89286 0.842801 3.51547 0.501125C4.13048 0.159449 4.91254 -1.99129e-07 5.86164 -1.99129e-07C6.82593 -1.99129e-07 7.76744 0.144263 8.70894 0.43279L8.24578 2.80174C7.6991 2.67267 7.1752 2.61192 6.68167 2.61192C6.18813 2.61192 5.83886 2.72582 5.62627 2.96119C5.40607 3.18898 5.29977 3.62936 5.29977 4.28234V5.18588H7.84336V7.87373H5.29977V18.0557H1.8982V7.87373H-2.89642e-08V5.18588Z" transform="translate(9.14258 4.47852)" fill="white"/>
</svg>
