<svg width="27" height="27" viewBox="0 0 27 27" fill="none" xmlns="http://www.w3.org/2000/svg">
<path d="M13.5 27C20.9558 27 27 20.9558 27 13.5C27 6.04416 20.9558 0 13.5 0C6.04416 0 0 6.04416 0 13.5C0 20.9558 6.04416 27 13.5 27Z" fill="#27A5EF"/>
<path fill-rule="evenodd" clip-rule="evenodd" d="M-2.95601e-06 14.0932C1.44344 14.1995 2.84131 13.9792 4.1632 13.3791C4.74817 13.136 5.29516 12.8093 5.82695 12.3914C5.1964 12.361 4.63422 12.2243 4.11762 11.9508C3.21356 11.4874 2.583 10.7733 2.20315 9.83882C2.11198 9.61091 2.11199 9.61091 2.37029 9.6337C2.98565 9.69448 3.44907 9.67928 3.82893 9.52734C3.47946 9.42098 3.16038 9.33741 2.87169 9.17028C1.54221 8.43336 0.828084 7.3014 0.714128 5.77439C0.698934 5.59206 0.752114 5.57686 0.911652 5.65283C1.38267 5.91113 1.89167 6.02509 2.48424 6.06307C2.21835 5.85036 1.99803 5.66043 1.80051 5.45531C0.698931 4.28536 0.433035 2.37849 1.17755 0.935049C1.27631 0.745122 1.31429 0.745123 1.45864 0.912258C3.30473 3.03944 5.61423 4.33854 8.40236 4.78677C8.69865 4.83235 9.00253 4.84754 9.30642 4.89313C9.49634 4.93111 9.51913 4.83235 9.49634 4.68041C9.20005 3.01665 9.98256 1.36049 11.4792 0.517211C12.9834 -0.356453 14.951 -0.0981527 16.1894 1.10219C16.3261 1.23134 16.4477 1.26172 16.6148 1.20854C17.3517 1.03381 18.0582 0.760317 18.7268 0.38806C18.7724 0.365269 18.818 0.342478 18.8939 0.289298C18.5976 1.22374 18.0355 1.92267 17.2074 2.48485C17.9823 2.40888 18.6736 2.18097 19.3497 1.92267C19.3725 2.02903 19.3042 2.08221 19.2586 2.14298C18.7952 2.78874 18.2406 3.35092 17.61 3.83713C17.4809 3.9283 17.4505 4.01186 17.4581 4.16381C17.4961 7.09628 16.5616 9.70207 14.6851 11.9508C12.9302 14.0248 10.6967 15.2631 8.02251 15.6886C5.1964 16.1216 2.53742 15.6354 0.0911626 14.1464C0.0531772 14.116 0.0303853 14.1084 -2.95601e-06 14.0932Z" transform="translate(4.55176 6.21338)" fill="white"/>
</svg>
